<svg width="104" height="104" viewBox="0 0 104 104" fill="none" xmlns="http://www.w3.org/2000/svg">
<path d="M66.8925 50.56H65.5483C63.6074 50.4982 62.3913 50.2475 61.4476 49.7893C61.4944 49.7111 61.5446 49.6339 61.5977 49.5592C61.7477 49.348 61.889 49.2011 61.9997 49.11C63.0994 49.1011 64.1761 49.4578 64.7454 50.0271L65.1151 50.3968L65.6297 50.3042C66.8052 50.0926 68.2886 49.4417 69.8196 48.4857C71.3676 47.5192 73.0287 46.2007 74.5581 44.5881C77.607 41.3733 80.2125 36.8994 80.2125 31.64C80.2125 31.2146 80.1863 30.7972 80.1342 30.3895C80.4989 31.6074 80.6925 33.0069 80.6925 34.6C80.6925 38.8398 78.6404 42.8448 75.8181 45.8106C72.9706 48.8029 69.5147 50.56 66.8925 50.56ZM68.2525 24.32C70.3231 24.32 72.0796 24.6309 73.5135 25.1717C71.1128 26.7038 68.4708 28.808 65.6293 31.649C61.8973 35.3006 57.6388 40.5914 53.5206 45.7566C53.2855 46.0515 53.0509 46.3459 52.8169 46.6396C48.9225 51.5268 45.1886 56.2125 42.1012 59.3371C33.9394 67.5788 28.7615 70.64 24.0125 70.64C21.8855 70.64 19.9059 70.0975 18.4729 68.8704C17.0678 67.6673 16.0525 65.6898 16.0525 62.52C16.0525 59.5526 17.5607 55.6734 20.393 51.4508C23.2063 47.2565 27.252 42.8344 32.1482 38.8019C41.9566 30.7239 55.0389 24.32 68.2525 24.32ZM76.1003 25.9529L76.7938 25.5654L76.8209 25.5827L77.0139 25.4904L76.893 25.5693L76.9314 25.6062L76.7913 25.7063C75.6163 26.5455 74.3757 27.6229 73.0698 28.9285C69.9047 32.0186 65.6496 37.6331 61.1575 43.5603C60.8413 43.9774 60.524 44.3962 60.2058 44.8156C55.3241 51.2511 50.2084 57.9093 45.7886 62.2897L45.7854 62.2929C39.1965 68.8818 32.7223 73.04 25.6125 73.04C23.8769 73.04 22.1999 72.7788 20.7068 72.2176C21.781 72.5118 22.9038 72.64 24.0125 72.64C29.6634 72.64 35.3653 68.9814 43.523 60.7437L43.5238 60.7429C46.6899 57.5387 50.4867 52.7735 54.3482 47.9271C54.5934 47.6194 54.8389 47.3114 55.0844 47.0034C59.2248 41.8104 63.4047 36.6231 67.0318 33.0749L67.0396 33.0671C70.4257 29.681 73.4735 27.4209 76.1003 25.9529ZM65.1387 56.7884C65.3629 56.3904 65.5723 56.0063 65.7596 55.6406C65.6371 56.083 65.4863 56.5655 65.3098 57.0896C65.002 58.0035 64.6407 58.977 64.2495 60.0309C63.9753 60.7697 63.6864 61.548 63.391 62.3729C61.984 66.3025 60.5325 71.0185 60.5325 75.96C60.5325 78.8142 61.362 81.3637 62.6654 82.6671C62.7364 82.7381 62.8073 82.807 62.8787 82.8735C61.5302 82.6459 60.3577 81.9734 59.4599 80.8989C58.3246 79.5399 57.5725 77.4655 57.5725 74.68C57.5725 70.6928 59.7174 66.1821 62.0023 62.1533C62.5668 61.1582 63.132 60.2049 63.6667 59.3047L63.7299 59.1983C64.239 58.3412 64.7216 57.5287 65.1387 56.7884ZM59.2147 49.9127L59.0052 50.611L59.606 51.024C60.9496 51.9478 62.4811 52.3799 64.6787 52.5209C64.6874 52.6263 64.6925 52.7337 64.6925 52.84C64.6925 52.9968 64.6205 53.3252 64.3814 53.8834C64.1536 54.4153 63.8184 55.0574 63.3963 55.8066C62.9907 56.5265 62.5186 57.3213 62.0045 58.1868L61.9471 58.2834C61.413 59.1826 60.8382 60.1518 60.2627 61.1667C57.9877 65.1779 55.5725 70.1072 55.5725 74.68C55.5725 77.8145 56.4204 80.3801 57.9251 82.1811C59.4406 83.9952 61.5649 84.96 63.9325 84.96C64.6517 84.96 65.3224 84.8706 65.8891 84.7138C66.4256 84.5654 66.9805 84.3262 67.3596 83.9471C67.8816 83.4251 67.9932 82.7253 67.7069 82.1528L67.2954 81.3298L66.4411 81.6715C66.202 81.7672 65.7013 81.84 65.3725 81.84C64.9872 81.84 64.8265 81.8029 64.7101 81.7524C64.5834 81.6976 64.41 81.5832 64.0796 81.2529C63.303 80.4763 62.5325 78.5458 62.5325 75.96C62.5325 71.3815 63.881 66.9375 65.274 63.0471C65.5501 62.276 65.8325 61.5147 66.1057 60.778C66.5085 59.6918 66.8915 58.6593 67.2052 57.7279C67.7304 56.1686 68.1325 54.7 68.1325 53.48C68.1325 53.1281 68.1183 52.7919 68.087 52.4747C71.1721 52.0448 74.568 50.0255 77.2669 47.1894C80.3446 43.9552 82.6925 39.4802 82.6925 34.6C82.6925 31.0402 81.8083 28.1248 80.0599 25.9538C81.2736 25.3143 82.2018 25.12 82.8925 25.12H83.5105L83.7869 24.5672C83.9028 24.3354 83.9974 24.0325 83.9707 23.69C83.9423 23.3248 83.7809 22.9905 83.5102 22.734C83.0279 22.2771 82.3089 22.16 81.6125 22.16C80.2648 22.16 78.6879 22.5411 76.9575 23.3089C74.5836 21.9391 71.667 21.36 68.4125 21.36C54.3581 21.36 40.4637 27.906 30.106 36.2305C24.9201 40.3985 20.5869 45.0387 17.542 49.5793C14.5115 54.0982 12.6925 58.6159 12.6925 62.52C12.6925 67.011 14.2517 70.1946 16.7385 72.2333C19.1919 74.2447 22.4236 75.04 25.6125 75.04C33.5421 75.04 40.5075 70.3989 47.1981 63.7086C51.1187 59.8227 55.5344 54.2354 59.7948 48.6589C59.5461 49.0547 59.3412 49.4909 59.2147 49.9127ZM61.2453 47.2256C60.9154 47.3905 60.6219 47.6349 60.3713 47.9033C60.8499 47.275 61.3262 46.6479 61.7992 46.0244C62.0991 45.629 62.3976 45.2353 62.6944 44.8436C67.2465 38.8383 71.4182 33.3348 74.4709 30.3557L74.471 30.3557L74.4796 30.3471C75.4343 29.3924 76.334 28.5838 77.179 27.9167C77.8498 28.9575 78.2125 30.2152 78.2125 31.64C78.2125 36.2206 75.938 40.2267 73.1069 43.2119C71.6963 44.6993 70.1674 45.9108 68.7604 46.7893C67.5734 47.5304 66.5166 48.0075 65.7201 48.2317C64.5761 47.3689 62.9868 47.0421 61.6338 47.1217L61.4289 47.1338L61.2453 47.2256ZM103 52C103 80.1665 80.1665 103 52 103C23.8335 103 1 80.1665 1 52C1 23.8335 23.8335 1 52 1C80.1665 1 103 23.8335 103 52Z" stroke="black" stroke-width="2"/>
</svg>
